<?xml version="1.0" encoding="UTF-8" standalone="no"?>
<!-- Created with Inkscape (http://www.inkscape.org/) -->

<svg xmlns:dc="http://purl.org/dc/elements/1.1/" xmlns:cc="http://creativecommons.org/ns#" xmlns:rdf="http://www.w3.org/1999/02/22-rdf-syntax-ns#" xmlns:svg="http://www.w3.org/2000/svg" xmlns="http://www.w3.org/2000/svg" xmlns:sodipodi="http://sodipodi.sourceforge.net/DTD/sodipodi-0.dtd" xmlns:inkscape="http://www.inkscape.org/namespaces/inkscape" width="256" height="256" viewBox="0 0 67.733332 67.733335" version="1.1" id="svg8" sodipodi:docname="Icon.svg" inkscape:version="0.92.5 (2060ec1f9f, 2020-04-08)" inkscape:export-xdpi="23.9999923706" inkscape:export-ydpi="23.9999923706">
<defs id="defs2" />
<sodipodi:namedview id="base" pagecolor="#ffffff" bordercolor="#666666" borderopacity="1.0" inkscape:pageopacity="0.0" inkscape:pageshadow="2" inkscape:zoom="1" inkscape:cx="143.136659086" inkscape:cy="118.876120593" inkscape:document-units="px" inkscape:current-layer="layer1" showgrid="false" units="px" inkscape:snap-page="false" inkscape:snap-nodes="false" inkscape:snap-bbox="true" inkscape:bbox-nodes="true" inkscape:snap-bbox-midpoints="false" inkscape:snap-bbox-edge-midpoints="false" inkscape:object-nodes="true" />
<metadata id="metadata5">
<rdf:RDF>
<cc:Work rdf:about="">
<dc:format>image/svg+xml</dc:format>
<dc:type rdf:resource="http://purl.org/dc/dcmitype/StillImage" />
<dc:title />
</cc:Work>
</rdf:RDF>
</metadata>
<g inkscape:label="Layer 1" inkscape:groupmode="layer" id="layer1" transform="translate(0,-229.26666)">
<rect y="229.26675415" x="1.52832029698e-07" height="67.7333526611" width="67.7333297729" id="rect1222-6" style="fill:#f0f0f0;stroke-width:1.5875000954" />
<path id="path1415-61-2-1" d="m 10.204065,249.52534 c 13.060408,2.32419 14.043449,0.52663 12.49867,7.26749 -3.721514,15.2231 3.229993,14.90712 1.474562,21.43732 -0.983042,3.47576 -2.668256,1.79054 -11.304977,-7.32366 -5.757814,-6.05272 -4.985424,-21.80245 -2.668255,-21.38115 z" style="fill:#a28062;stroke-width:0.2645776868" inkscape:connector-curvature="0" />
<path id="path1417-4-4-7" d="m 57.530486,249.52534 c -13.06041,2.32419 -14.11366,0.52663 -12.49867,7.26749 3.6513,15.2231 -3.22999,14.90712 -1.47456,21.43732 0.91282,3.47576 2.66826,1.79054 11.30498,-7.32366 5.75781,-6.05272 4.98542,-21.80245 2.66825,-21.38115 z" style="fill:#a28062;stroke-width:0.2645776868" inkscape:connector-curvature="0" />
<path id="path1419-1-2-7" d="m 27.40729,273.49049 c 7.794116,2.94912 5.336506,3.2651 12.849756,0 3.51086,-1.47456 -1.47456,9.90063 -3.86195,8.68587 -2.10652,-1.10241 -2.87891,-1.05326 -4.91521,0 -2.80869,1.42541 -7.302589,-10.53258 -4.072596,-8.68587 z" style="fill:#a28062;stroke-width:0.2645776868" inkscape:connector-curvature="0" />
<path id="path1421-6-4-6" d="m 48.402246,245.05953 c -11.51563,-1.47457 -18.67779,-1.42541 -29.069939,0 -5.406728,0.73728 7.232376,6.68468 9.128239,6.05272 4.42369,-1.42541 6.1089,-1.58691 10.60281,0 2.38738,0.84261 14.60518,-5.37162 9.33889,-6.05272 z" style="fill:#a28062;stroke-width:0.2645776868" inkscape:connector-curvature="0" />
<path inkscape:connector-curvature="0" style="fill:#191423;stroke-width:0.8819823861;stroke-linecap:round;stroke-linejoin:round" d="m 33.824236,255.02439 a 8.0833609,8.0833609 0 0 0 -8.031381,8.08402 8.0833609,8.0833609 0 0 0 8.031381,8.08402 8.0833609,8.0833609 0 0 0 8.09717,-8.08402 8.0833609,8.0833609 0 0 0 -8.09717,-8.08402 z m 0,4.29875 a 3.7833604,3.7833604 0 0 1 3.81813,3.78527 3.7833604,3.7833604 0 0 1 -3.81813,3.77869 3.7833604,3.7833604 0 0 1 -3.75234,-3.77869 3.7833604,3.7833604 0 0 1 3.75234,-3.78527 z" id="path2603-5" />
</g>
<style id="style833" type="text/css">.icon-canvas-transparent{opacity:0;fill:#F6F6F6;} .icon-vs-out{fill:#F6F6F6;} .icon-vs-fg{fill:#F0EFF1;} .icon-vs-action-purple{fill:#652D90;}</style>
<style id="style854">.icon-canvas-transparent{opacity:0;fill:#f6f6f6}.icon-vs-out{fill:#f6f6f6}.icon-vs-action-orange{fill:#c27d1a}</style>
<style id="style878" type="text/css">.icon-canvas-transparent{opacity:0;fill:#F6F6F6;} .icon-vs-out{fill:#F6F6F6;} .icon-vs-bg{fill:#424242;} .icon-vs-fg{fill:#F0EFF1;}</style>
<style id="style1021" type="text/css">.icon-canvas-transparent{opacity:0;fill:#F6F6F6;} .icon-vs-out{fill:#F6F6F6;} .icon-vs-bg{fill:#424242;} .icon-vs-fg{fill:#F0EFF1;}</style>
<style id="style1042" type="text/css">.icon-canvas-transparent{opacity:0;fill:#F6F6F6;} .icon-vs-out{fill:#F6F6F6;} .icon-vs-fg{fill:#F0EFF1;} .icon-vs-action-purple{fill:#652D90;}</style>
<style id="style1063">.icon-canvas-transparent{opacity:0;fill:#f6f6f6}.icon-vs-out{fill:#f6f6f6}.icon-vs-action-orange{fill:#c27d1a}</style>
<style id="style1187">.icon-canvas-transparent{opacity:0;fill:#f6f6f6}.icon-vs-out{fill:#f6f6f6}.icon-vs-action-orange{fill:#c27d1a}</style>
<style id="style1260" type="text/css">.icon-canvas-transparent{opacity:0;fill:#F6F6F6;} .icon-vs-out{fill:#F6F6F6;} .icon-vs-fg{fill:#F0EFF1;} .icon-vs-action-purple{fill:#652D90;}</style>
<style id="style1289" type="text/css">.icon-canvas-transparent{opacity:0;fill:#F6F6F6;} .icon-vs-out{fill:#F6F6F6;} .icon-vs-bg{fill:#424242;} .icon-vs-fg{fill:#F0EFF1;} .icon-vs-action-purple{fill:#652D90;}</style>
<style id="style1377">.icon-vs-out{fill:#f6f6f6}.icon-vs-action-blue{fill:#00539c}.st0{opacity:0;fill:#f6f6f6}</style>
<style id="style1399">.icon-canvas-transparent{opacity:0;fill:#f6f6f6}.icon-vs-out{fill:#f6f6f6}.icon-vs-action-blue{fill:#00539c}.icon-folder_x0020_{fill:#dcb67a}.icon-bg{fill:#424242}</style>
<style id="style1582">.icon-vs-out{fill:#f6f6f6}.icon-vs-action-blue{fill:#00539c}.st0{opacity:0;fill:#f6f6f6}</style>
</svg>
